<svg xmlns="http://www.w3.org/2000/svg" width="407" height="450" viewBox="0 0 407 450" version="1.1"><path d="M 226.605 1.099 L 218.710 1.931 210.839 3.921 L 202.969 5.912 193.735 9.578 L 184.500 13.244 175.500 18.536 L 166.500 23.828 158.052 30.664 L 149.604 37.500 142.552 45.526 L 135.500 53.551 125.500 65.443 L 115.500 77.335 100.182 95.417 L 84.863 113.500 76.520 123.107 L 68.177 132.715 65.228 133.304 L 62.279 133.894 59.057 136.605 L 55.835 139.317 43.426 154.908 L 31.017 170.500 29.387 173.906 L 27.758 177.312 28.326 182.102 L 28.893 186.892 30.359 189.727 L 31.824 192.561 21.389 206.481 L 10.955 220.400 16.977 226.477 L 23 232.554 23 233.083 L 23 233.613 18.351 238.557 L 13.702 243.500 9.840 249.422 L 5.979 255.343 3.362 263.422 L 0.746 271.500 0.251 282.101 L -0.245 292.701 3.003 293.351 L 6.250 294 12.994 294 L 19.738 294 20.358 297.750 L 20.978 301.500 20.989 318.739 L 21 335.978 18.882 343.699 L 16.764 351.420 17.295 356.573 L 17.827 361.725 20.379 366.762 L 22.931 371.798 26.684 374.891 L 30.437 377.984 35.220 379.573 L 40.003 381.162 45.751 381.109 L 51.500 381.057 54.500 380.161 L 57.500 379.265 80.356 369.516 L 103.211 359.768 113.520 359.586 L 123.828 359.405 124.497 367.452 L 125.165 375.500 126.635 385 L 128.105 394.500 129.530 400.059 L 130.956 405.617 133.932 412.835 L 136.908 420.053 142.294 428.276 L 147.680 436.500 154.345 443.500 L 161.009 450.500 166.576 444.500 L 172.142 438.500 175.926 433 L 179.711 427.500 181.541 424 L 183.371 420.500 186.027 412.665 L 188.683 404.831 191.950 409.922 L 195.218 415.014 202.270 421.544 L 209.322 428.073 218.411 432.514 L 227.500 436.956 235.563 438.530 L 243.625 440.105 250.063 439.803 L 256.500 439.500 256.776 424.319 L 257.051 409.139 269.432 415.601 L 281.814 422.064 290.594 425.032 L 299.375 428 299.823 428 L 300.272 428 299.731 413.250 L 299.190 398.500 297.094 390.585 L 294.997 382.669 295.581 382.085 L 296.165 381.500 321.426 381.152 L 346.686 380.804 339.871 357.152 L 333.055 333.500 333.027 332.911 L 333 332.323 342.250 334.214 L 351.500 336.104 368.915 336.693 L 386.330 337.282 382.498 330.391 L 378.666 323.500 374.399 317 L 370.132 310.500 365.816 304.856 L 361.500 299.212 356.608 293.582 L 351.715 287.951 352.108 287.640 L 352.500 287.328 375.765 277.423 L 399.029 267.518 398.468 266.057 L 397.908 264.596 392.204 256.667 L 386.500 248.738 378.327 240.051 L 370.154 231.364 366.593 228.932 L 363.032 226.500 385.017 204.491 L 407.002 182.481 400.251 177.399 L 393.500 172.317 389 169.289 L 384.500 166.262 376 162.015 L 367.500 157.768 367.047 157.347 L 366.594 156.927 383.797 139.703 L 401 122.479 401 121.740 L 401 121 399.956 121 L 398.911 121 384.706 114.869 L 370.500 108.738 362 105.467 L 353.500 102.196 343 99.639 L 332.500 97.082 328.721 96.835 L 324.942 96.587 329.721 92.635 L 334.500 88.682 342.618 80.482 L 350.735 72.281 357.832 62.891 L 364.929 53.500 363.214 52.793 L 361.500 52.087 344.500 49.948 L 327.500 47.810 310.860 47.280 L 294.220 46.750 303.086 32.020 L 311.951 17.291 312.551 15.727 L 313.151 14.164 297.325 14.596 L 281.500 15.028 270 16.136 L 258.500 17.245 254.750 18.016 L 251 18.787 251 18.355 L 251 17.923 257.026 8.962 L 263.052 0 248.776 0.133 L 234.500 0.266 226.605 1.099 M 226 16.514 L 218.500 17.783 214 18.943 L 209.500 20.103 200.500 23.558 L 191.500 27.012 190 27.991 L 188.500 28.969 198.250 28.985 L 208 29 208 29.297 L 208 29.594 204.051 41.348 L 200.102 53.102 201.301 53.502 L 202.500 53.902 216.343 57.425 L 230.186 60.949 241.904 57.032 L 253.622 53.115 264.061 50.994 L 274.500 48.874 275.165 48.187 L 275.831 47.500 280.915 39.177 L 286 30.853 286 30.560 L 286 30.267 278.750 30.699 L 271.500 31.131 260.500 32.637 L 249.500 34.144 234.724 37.147 L 219.947 40.149 219.015 39.825 L 218.082 39.500 223.866 31 L 229.650 22.500 231.907 18.750 L 234.163 15 233.832 15.122 L 233.500 15.244 226 16.514 M 167.322 44.718 L 164.144 45.116 157.322 52.316 L 150.500 59.515 131 82.605 L 111.500 105.695 99.500 119.938 L 87.500 134.180 87.149 135.733 L 86.798 137.286 88.690 136.791 L 90.581 136.297 139.823 109.148 L 189.065 82 190.282 82.012 L 191.500 82.024 194.858 88.136 L 198.216 94.248 196.858 95.140 L 195.500 96.032 184.500 102.151 L 173.500 108.269 153.500 119.240 L 133.500 130.211 117 139.270 L 100.500 148.329 100.060 148.689 L 99.619 149.048 101.220 150.648 L 102.820 152.249 134.028 134.936 L 165.237 117.623 177.368 115.386 L 189.500 113.148 204.500 110.474 L 219.500 107.801 235.878 104.939 L 252.257 102.076 252.645 101.688 L 253.034 101.299 258.943 93.409 L 264.852 85.519 264.676 85.364 L 264.500 85.210 248.178 81.064 L 231.855 76.919 219.980 82.888 L 208.105 88.857 204.506 82.309 L 200.906 75.760 201.203 75.507 L 201.500 75.254 204.921 73.513 L 208.343 71.771 206.921 71.024 L 205.500 70.276 194 67.505 L 182.500 64.735 181.647 63.965 L 180.794 63.194 183.720 54.209 L 186.646 45.223 182.183 44.612 L 177.721 44 174.110 44.160 L 170.500 44.320 167.322 44.718 M 285 63.087 L 278.500 63.919 269.125 65.600 L 259.751 67.281 261.166 68.073 L 262.580 68.865 275.040 71.954 L 287.500 75.044 289.268 75.772 L 291.036 76.500 283.072 86.970 L 275.107 97.440 275.304 97.570 L 275.500 97.700 286.728 96.477 L 297.956 95.254 304.941 91.104 L 311.926 86.955 319.213 81.098 L 326.500 75.241 331.346 70.239 L 336.192 65.237 335.247 64.653 L 334.303 64.069 323.401 63.035 L 312.500 62.002 302 62.128 L 291.500 62.254 285 63.087 M 286.285 111.850 L 284.070 112.500 307.035 120.920 L 330 129.339 329.953 129.920 L 329.907 130.500 319.549 138 L 309.192 145.500 309.427 145.748 L 309.663 145.996 322.081 147.009 L 334.500 148.022 342.135 149.846 L 349.770 151.670 362.176 139.372 L 374.582 127.074 365.041 123.138 L 355.500 119.201 347.171 116.592 L 338.842 113.983 330.290 112.491 L 321.738 111 305.119 111.100 L 288.500 111.199 286.285 111.850 M 220.500 123.020 L 193.500 127.860 182 130.039 L 170.500 132.218 158.500 138.990 L 146.500 145.762 140.500 148.999 L 134.500 152.235 123.747 158.285 L 112.994 164.336 114.572 166.080 L 116.151 167.824 122.825 165.035 L 129.500 162.245 148.364 154.123 L 167.227 146 225.156 146 L 283.086 146 290.995 140.124 L 298.904 134.248 277.403 126.124 L 255.902 118 251.701 118.090 L 247.500 118.180 220.500 123.020 M 69.323 148.265 L 67.145 149.500 59.279 159.500 L 51.413 169.500 48.207 174.180 L 45 178.860 45 180.808 L 45 182.755 46.250 183.768 L 47.500 184.781 57.500 187.482 L 67.500 190.182 76.500 193.648 L 85.500 197.113 93.500 201.481 L 101.500 205.849 108.884 211.175 L 116.267 216.500 118.216 217.926 L 120.164 219.353 120.832 218.337 L 121.500 217.321 126.743 212.697 L 131.985 208.072 121.729 197.286 L 111.472 186.500 96.790 169.384 L 82.108 152.269 78.977 149.634 L 75.847 147 73.673 147.015 L 71.500 147.029 69.323 148.265 M 195.500 161.896 L 167.500 162.500 147.774 171 L 128.048 179.500 128.024 180.250 L 128 181 130.004 181 L 132.009 181 141.615 178.444 L 151.221 175.888 151.634 176.301 L 152.047 176.714 153.908 183.426 L 155.769 190.137 153.635 190.928 L 151.500 191.719 146.250 192.959 L 141 194.199 141 194.711 L 141 195.222 145.079 200.094 L 149.157 204.965 153.329 206.063 L 157.500 207.161 161 209.331 L 164.500 211.500 193.500 212 L 222.500 212.500 252.420 226.750 L 282.340 241 285.920 240.994 L 289.500 240.989 293 240.068 L 296.500 239.146 302.247 238.003 L 307.995 236.859 300.366 226.954 L 292.737 217.048 289.119 213.179 L 285.500 209.310 234.200 196.545 L 182.900 183.779 176.701 185.341 L 170.502 186.902 169.862 186.201 L 169.221 185.500 167.725 179.500 L 166.229 173.500 166.979 172.685 L 167.730 171.870 175.115 169.961 L 182.500 168.052 236.620 181.526 L 290.740 195 292.267 195 L 293.793 195 301.147 189.362 L 308.500 183.724 308.855 183.424 L 309.210 183.123 305.855 180.182 L 302.500 177.241 293 169.653 L 283.500 162.066 270.500 162.030 L 257.500 161.994 240.500 161.643 L 223.500 161.291 195.500 161.896 M 320.816 172.250 L 333.903 182.500 333.951 183.185 L 334 183.870 323.750 191.570 L 313.500 199.270 313.234 199.933 L 312.968 200.596 319.876 202.821 L 326.783 205.046 338.642 210.997 L 350.500 216.948 366.750 200.735 L 383 184.523 382.983 184.011 L 382.965 183.500 376.733 179.844 L 370.500 176.189 365.500 173.709 L 360.500 171.228 351.342 168.164 L 342.183 165.100 333.342 163.553 L 324.500 162.006 316.115 162.003 L 307.729 162 320.816 172.250 M 39.058 210.579 L 32.704 219.158 40.352 226.851 L 48 234.544 47.988 235.522 L 47.976 236.500 42.738 240.144 L 37.500 243.788 32.572 248.135 L 27.644 252.483 23.807 258.420 L 19.970 264.356 17.985 270.783 L 16 277.211 16 277.605 L 16 278 26.553 278 L 37.107 278 36.794 308.750 L 36.480 339.500 34.118 347 L 31.755 354.500 33.317 358.228 L 34.880 361.956 38.190 364.034 L 41.500 366.111 46.500 365.706 L 51.500 365.300 75 354.993 L 98.500 344.687 111.250 344.243 L 124 343.799 124 300.338 L 124 256.877 120.427 249.188 L 116.855 241.500 115.677 239.072 L 114.500 236.644 106.361 230.072 L 98.222 223.500 90.361 218.764 L 82.500 214.028 73.710 210.445 L 64.920 206.861 56.710 204.452 L 48.500 202.042 46.956 202.021 L 45.411 202 39.058 210.579 M 317.352 223.766 L 323.736 231.500 329.355 238.500 L 334.975 245.500 334.987 246.170 L 335 246.840 328.250 248.336 L 321.500 249.832 315.500 251.024 L 309.500 252.217 308 253.078 L 306.500 253.939 307.622 253.970 L 308.743 254 316.622 259.137 L 324.500 264.274 331.740 270.137 L 338.980 276 339.546 276 L 340.112 276 358.020 268.354 L 375.928 260.708 373.743 257.604 L 371.557 254.500 364.493 247.500 L 357.429 240.500 348.465 234.378 L 339.500 228.257 332.500 224.754 L 325.500 221.251 318.234 218.641 L 310.969 216.032 317.352 223.766 M 141.643 220.983 L 138.785 221.885 136.755 223.692 L 134.724 225.500 133.362 228.718 L 132 231.936 132 235.018 L 132 238.099 133.485 240.971 L 134.970 243.842 137.975 245.982 L 140.981 248.123 144.426 248.682 L 147.871 249.241 152.343 247.076 L 156.814 244.912 158.593 241.206 L 160.372 237.500 160.231 233.549 L 160.090 229.597 158.233 227.110 L 156.376 224.624 153.915 222.786 L 151.453 220.948 147.977 220.515 L 144.500 220.082 141.643 220.983 M 183.362 227.698 L 183.563 227.897 228.478 256.480 L 273.392 285.064 274.848 284.505 L 276.305 283.946 282.652 282.351 L 289 280.757 289 279.899 L 289 279.040 284.929 268.770 L 280.858 258.500 279.679 257.299 L 278.500 256.097 249.500 242.304 L 220.500 228.511 201.830 228.005 L 183.160 227.500 183.362 227.698 M 198.186 262.378 L 215.260 280.500 234.732 301.250 L 254.205 322 264.088 322 L 273.971 322 272.086 317.250 L 270.201 312.500 267.234 305 L 264.266 297.500 241.883 283.229 L 219.500 268.959 207.500 261.290 L 195.500 253.622 188.306 248.939 L 181.112 244.257 198.186 262.378 M 166.219 256.266 L 164.090 258.533 173.469 273.016 L 182.848 287.500 191.674 300.990 L 200.500 314.480 210.735 330.387 L 220.970 346.293 223.235 349.176 L 225.500 352.058 233.250 351.382 L 241 350.707 241 340.274 L 241 329.842 224.750 312.742 L 208.500 295.641 195 281.537 L 181.500 267.434 175.572 260.717 L 169.645 254 168.997 254 L 168.349 254 166.219 256.266 M 149.466 265.500 L 150.225 267.500 162.909 308.500 L 175.593 349.500 182.871 362.704 L 190.150 375.907 200.500 379.954 L 210.849 384 211.425 384 L 212 384 212 372.180 L 212 360.360 200.637 342.930 L 189.273 325.500 168.990 294.500 L 148.706 263.500 149.466 265.500 M 305.609 279.053 L 310.052 290.107 309.509 290.986 L 308.965 291.865 303.349 293.031 L 297.732 294.197 294.420 295.349 L 291.107 296.500 300.058 301.818 L 309.009 307.135 318.301 311.018 L 327.594 314.901 337.435 317.458 L 347.277 320.015 352.639 320.645 L 358 321.275 358 320.450 L 358 319.624 353.347 313.562 L 348.695 307.500 338.597 297.136 L 328.500 286.773 319.500 280.041 L 310.500 273.308 306.270 270.654 L 302.040 268 301.603 268 L 301.166 268 305.609 279.053 M 139.166 327.745 L 139.500 370.990 150.168 381.657 L 160.836 392.324 167.454 385.969 L 174.072 379.614 173.786 378.557 L 173.500 377.500 166.850 365 L 160.199 352.500 150.002 319 L 139.804 285.500 139.318 285 L 138.831 284.500 139.166 327.745 M 287.005 312.635 L 287.010 313.500 291.505 324.362 L 296 335.224 295.998 336.362 L 295.997 337.500 282.586 337.500 L 269.176 337.500 270.323 339 L 271.470 340.500 274.989 344.611 L 278.508 348.723 283.504 357.340 L 288.500 365.957 307.329 365.979 L 326.159 366 325.548 363.219 L 324.937 360.437 320.114 343.590 L 315.290 326.743 303.895 321.087 L 292.500 315.431 289.750 313.601 L 287 311.770 287.005 312.635 M 256.500 356.800 L 256.500 366.500 245.500 367 L 234.500 367.500 245.500 378.605 L 256.500 389.711 264 394.716 L 271.500 399.721 277.750 402.875 L 284 406.029 284 403.674 L 284 401.320 281.994 393.410 L 279.987 385.500 276.781 377.500 L 273.576 369.500 267.876 361 L 262.176 352.500 259.338 349.800 L 256.500 347.100 256.500 356.800 M 227 394.351 L 227 407 226.750 406.986 L 226.500 406.972 214.508 402.061 L 202.516 397.151 202.118 397.548 L 201.721 397.946 204.371 401.420 L 207.021 404.894 212.191 409.904 L 217.362 414.914 222.931 417.862 L 228.500 420.809 233.932 422.405 L 239.363 424 240.182 424 L 241 424 241 410.149 L 241 396.298 234 389 L 227 381.702 227 394.351 M 145.442 400.004 L 146.176 402.500 149.144 409 L 152.111 415.500 156.173 421.750 L 160.235 428 160.639 428 L 161.044 428 164.960 421.940 L 168.877 415.881 171.041 409.377 L 173.206 402.872 172.796 402.462 L 172.386 402.052 166.682 407.816 L 160.978 413.581 152.843 405.544 L 144.709 397.507 145.442 400.004" stroke="none" fill="#ffffff" fill-rule="evenodd"/></svg>