<?xml version="1.0" standalone="no"?>
<!DOCTYPE svg PUBLIC "-//W3C//DTD SVG 20010904//EN"
 "http://www.w3.org/TR/2001/REC-SVG-20010904/DTD/svg10.dtd">
<svg version="1.0" xmlns="http://www.w3.org/2000/svg"
 width="128.000000pt" height="128.000000pt" viewBox="0 0 128.000000 128.000000"
 preserveAspectRatio="xMidYMid meet">

<g transform="translate(0.000000,128.000000) scale(0.100000,-0.100000)"
fill="#000000" stroke="none">
<path d="M557 1258 c-17 -16 -85 -173 -216 -504 -105 -264 -198 -490 -207
-502 -9 -13 -26 -22 -40 -22 -30 0 -64 -17 -81 -39 -7 -9 -13 -44 -13 -79 0
-54 4 -66 25 -87 l24 -25 224 0 c212 0 226 1 251 21 24 19 26 27 26 93 0 89
-15 108 -93 116 -60 6 -69 23 -43 84 l15 37 143 -3 142 -3 22 -55 22 -55 -41
-6 c-58 -8 -87 -45 -87 -110 0 -52 12 -86 39 -106 12 -9 90 -12 289 -13 l273
0 24 25 c21 21 25 33 25 87 -1 83 -30 118 -97 118 -28 0 -30 5 -226 503 -140
352 -206 509 -224 525 -20 18 -36 22 -88 22 -52 0 -68 -4 -88 -22z m327 -560
c124 -313 208 -510 222 -525 15 -15 35 -23 59 -23 33 0 35 -2 35 -35 l0 -35
-245 0 -245 0 0 35 0 35 51 0 c62 0 89 13 89 45 0 13 -19 71 -42 129 l-41 106
-189 0 c-103 0 -191 0 -195 1 -5 1 -20 -30 -35 -67 -29 -72 -35 -132 -18 -165
15 -26 62 -49 105 -49 33 0 35 -2 35 -35 l0 -35 -195 0 -195 0 0 35 c0 33 2
35 31 35 23 0 41 10 68 37 33 33 64 103 232 525 l194 488 40 0 40 0 199 -502z"/>
<path d="M493 727 c-40 -100 -75 -190 -79 -199 -6 -17 6 -18 155 -18 89 0 161
3 161 6 0 14 -154 394 -159 394 -3 0 -38 -82 -78 -183z m108 -94 l18 -43 -44
0 c-25 0 -45 4 -45 9 0 5 10 31 21 58 14 31 23 43 27 33 3 -8 13 -34 23 -57z"/>
</g>
</svg>
